<svg xmlns="http://www.w3.org/2000/svg" xmlns:xlink="http://www.w3.org/1999/xlink" version="1.1" enable-background="new 0 0 1000 1000" xml:space="preserve" width="1000" height="1000" style=""><rect id="backgroundrect" width="100%" height="100%" x="0" y="0" fill="none" stroke="none"/>
<metadata> Svg Vector Icons : http://www.onlinewebfonts.com/icon </metadata>

<g class="currentLayer" style=""><title>Layer 1</title><g id="svg_1" class="selected" fill="#ffffff" fill-opacity="1"><g id="svg_2" fill="#ffffff" fill-opacity="1"><path d="M500,10C229.4,10,10,229.4,10,500c0,270.6,219.4,490,490,490s490-219.4,490-490C990,229.4,770.6,10,500,10z M616.1,348.6h-73.7c-8.7,0-18.4,11.4-18.4,26.8v53.2H616v75.8H524v227.7h-87V504.4h-78.8v-75.8H437V384c0-64,44.4-116,105.4-116H616L616.1,348.6L616.1,348.6z" id="svg_3" fill="#ffffff" fill-opacity="1"/></g><g id="svg_4" fill="#ffffff" fill-opacity="1"/><g id="svg_5" fill="#ffffff" fill-opacity="1"/><g id="svg_6" fill="#ffffff" fill-opacity="1"/><g id="svg_7" fill="#ffffff" fill-opacity="1"/><g id="svg_8" fill="#ffffff" fill-opacity="1"/><g id="svg_9" fill="#ffffff" fill-opacity="1"/><g id="svg_10" fill="#ffffff" fill-opacity="1"/><g id="svg_11" fill="#ffffff" fill-opacity="1"/><g id="svg_12" fill="#ffffff" fill-opacity="1"/><g id="svg_13" fill="#ffffff" fill-opacity="1"/><g id="svg_14" fill="#ffffff" fill-opacity="1"/><g id="svg_15" fill="#ffffff" fill-opacity="1"/><g id="svg_16" fill="#ffffff" fill-opacity="1"/><g id="svg_17" fill="#ffffff" fill-opacity="1"/><g id="svg_18" fill="#ffffff" fill-opacity="1"/></g></g></svg>